<svg width="24" height="24" viewBox="0 0 24 24" fill="none" xmlns="http://www.w3.org/2000/svg">
<rect width="24" height="24" fill="#1E1E1E"/>
<rect width="1440" height="1024" transform="translate(-160 -819)" fill="white"/>
<g clip-path="url(#clip0_0_1)">
<rect x="-7" y="-48" width="1200" height="175" rx="8" fill="#F6F8FA"/>
<rect width="1255" height="46" transform="translate(-7 -11)" fill="white"/>
<mask id="path-3-inside-1_0_1" fill="white">
<path d="M-7 -11H1369V35H-7V-11Z"/>
</mask>
<path d="M-7 -11H1369V35H-7V-11Z" fill="white"/>
<path d="M-7 -11V-10H1369V-11V-12H-7V-11Z" fill="#EBEEF1" mask="url(#path-3-inside-1_0_1)"/>
<circle cx="12" cy="12" r="12" fill="#7C5BFF"/>
<path d="M4.67578 16V7.54492H7.9043C9.5332 7.54492 10.5996 8.54102 10.5996 10.0586V10.0703C10.5996 11.2422 9.96094 12.1562 8.90039 12.4902L10.8574 16H9.62109L7.81055 12.6543H5.73047V16H4.67578ZM5.73047 11.7168H7.81055C8.89453 11.7168 9.50977 11.1367 9.50977 10.1055V10.0938C9.50977 9.08594 8.85352 8.48242 7.76367 8.48242H5.73047V11.7168ZM16.0195 16.1992C13.6816 16.1992 12.1875 14.4766 12.1875 11.7754V11.7637C12.1875 9.09766 13.7051 7.3457 16.0195 7.3457C17.8945 7.3457 19.2129 8.40039 19.5469 10.0059L19.5586 10.0645H18.4922L18.4746 10.0059C18.1289 8.91602 17.2793 8.31836 16.0195 8.31836C14.3438 8.31836 13.2656 9.66602 13.2656 11.7637V11.7754C13.2656 13.9023 14.3262 15.2266 16.0254 15.2266C17.5371 15.2266 18.5566 14.2598 18.5566 12.8301V12.625H16.1836V11.6992H19.6113V12.7305C19.6113 14.8164 18.1816 16.1992 16.0195 16.1992Z" fill="white"/>
</g>
<rect x="-6.5" y="-47.5" width="1199" height="174" rx="7.5" stroke="#EBEEF1"/>
<defs>
<clipPath id="clip0_0_1">
<rect x="-7" y="-48" width="1200" height="175" rx="8" fill="white"/>
</clipPath>
</defs>
</svg>
